<?xml version="1.0" standalone="no"?>
<!DOCTYPE svg PUBLIC "-//W3C//DTD SVG 20010904//EN"
 "http://www.w3.org/TR/2001/REC-SVG-20010904/DTD/svg10.dtd">
<svg version="1.0" xmlns="http://www.w3.org/2000/svg"
 width="1500.000000pt" height="442.000000pt" viewBox="0 0 1500.000000 442.000000"
 preserveAspectRatio="xMidYMid meet">

<g transform="translate(0.000000,442.000000) scale(0.100000,-0.100000)"
fill="#000000" stroke="none">
<path d="M12355 4399 c-711 -77 -1194 -428 -1331 -967 -106 -417 -5 -818 276
-1102 254 -255 567 -399 1428 -655 484 -143 571 -186 635 -311 27 -53 40 -154
28 -218 -38 -204 -217 -318 -548 -348 -321 -29 -571 38 -728 195 -112 112
-170 249 -191 450 l-6 67 -512 0 -512 0 8 -83 c64 -685 376 -1120 937 -1307
256 -86 504 -116 871 -107 311 8 533 41 762 114 599 189 923 578 945 1133 3
88 1 179 -6 233 -34 253 -146 475 -327 648 -171 163 -341 242 -939 439 -187
61 -440 145 -563 185 -329 110 -471 185 -533 283 -38 60 -49 101 -49 183 0
167 143 303 375 355 104 23 317 23 430 0 113 -24 237 -86 306 -156 69 -69 130
-190 155 -307 l17 -83 499 0 498 0 0 74 c0 40 -7 113 -15 162 -50 289 -155
497 -349 690 -219 219 -492 349 -871 416 -130 22 -543 33 -690 17z"/>
<path d="M14090 4265 l0 -45 70 0 70 0 0 -195 0 -195 50 0 50 0 0 195 0 195
70 0 70 0 0 45 0 45 -190 0 -190 0 0 -45z"/>
<path d="M14530 4070 l0 -240 45 0 45 0 1 178 1 177 46 -175 47 -175 49 0 49
0 43 169 c24 93 46 171 49 174 3 3 5 -74 5 -171 l0 -177 45 0 45 0 0 240 0
240 -72 0 -73 0 -44 -170 c-24 -94 -46 -169 -48 -166 -3 2 -24 78 -47 168
l-43 163 -71 3 -72 3 0 -241z"/>
<path d="M0 2210 l0 -2090 535 0 535 0 0 2090 0 2090 -535 0 -535 0 0 -2090z"/>
<path d="M1510 2210 l0 -2090 1618 2 1617 3 0 425 0 425 -1082 3 -1083 2 0
430 0 430 1075 0 1075 0 0 420 0 420 -1075 0 -1075 0 0 380 0 380 1075 0 1075
0 0 430 0 430 -1610 0 -1610 0 0 -2090z"/>
<path d="M5150 2210 l0 -2090 1515 0 1515 0 0 455 0 455 -980 0 -980 0 0 1635
0 1635 -535 0 -535 0 0 -2090z"/>
<path d="M7390 3875 l0 -425 595 0 595 0 0 -1665 0 -1665 535 0 535 0 0 1665
0 1665 600 0 600 0 0 425 0 425 -1730 0 -1730 0 0 -425z"/>
</g>
</svg>
